<svg width="2467" height="930" viewBox="0 0 2467 930" fill="none" xmlns="http://www.w3.org/2000/svg">
<rect y="786.402" width="2544.85" height="150" transform="rotate(-18 0 786.402)" fill="#FF9E3C"/>
<rect x="59.7179" y="788.278" width="2482.71" height="110" transform="rotate(-18 59.7179 788.278)" fill="#F06500"/>
<path d="M719.915 616.217C719.726 615.593 719.619 614.971 719.595 614.349C719.58 613.711 719.6 613.142 719.658 612.645C719.716 612.065 719.819 611.497 719.967 610.942L722.413 610.189C722.362 610.37 722.327 610.579 722.309 610.818C722.279 611.02 722.26 611.258 722.254 611.534C722.248 611.81 722.254 612.123 722.272 612.473C722.622 612.414 722.974 612.423 723.328 612.5C723.69 612.56 724.022 612.678 724.326 612.853C724.629 613.028 724.895 613.257 725.123 613.539C725.364 613.816 725.541 614.128 725.654 614.475C725.782 614.871 725.823 615.269 725.774 615.668C725.738 616.063 725.633 616.433 725.457 616.778C725.281 617.122 725.044 617.425 724.746 617.686C724.447 617.948 724.106 618.141 723.722 618.265C723.326 618.394 722.93 618.44 722.535 618.405C722.149 618.352 721.783 618.238 721.439 618.063C721.09 617.875 720.783 617.625 720.518 617.314C720.253 617.004 720.052 616.638 719.915 616.217ZM712.689 618.564C712.5 617.941 712.394 617.319 712.37 616.697C712.354 616.058 712.375 615.49 712.432 614.992C712.49 614.412 712.593 613.845 712.741 613.29L715.187 612.537C715.136 612.717 715.101 612.927 715.083 613.166C715.053 613.367 715.034 613.606 715.028 613.882C715.022 614.158 715.028 614.471 715.046 614.821C715.396 614.762 715.748 614.771 716.102 614.847C716.464 614.908 716.796 615.026 717.1 615.201C717.403 615.376 717.669 615.605 717.897 615.886C718.138 616.164 718.315 616.476 718.428 616.823C718.556 617.219 718.597 617.617 718.548 618.016C718.512 618.411 718.407 618.781 718.231 619.125C718.056 619.47 717.819 619.773 717.52 620.034C717.222 620.295 716.88 620.488 716.497 620.613C716.1 620.742 715.705 620.788 715.31 620.752C714.923 620.7 714.557 620.586 714.213 620.41C713.864 620.223 713.557 619.973 713.292 619.662C713.027 619.351 712.826 618.986 712.689 618.564ZM766.728 616.819C767.074 617.884 767.194 618.947 767.087 620.009C766.988 621.054 766.705 622.036 766.237 622.955C765.777 623.857 765.147 624.657 764.347 625.355C763.547 626.054 762.627 626.572 761.587 626.91L743.55 632.77L742.313 628.962L760.349 623.102C760.87 622.933 761.326 622.675 761.72 622.328C762.126 621.977 762.447 621.571 762.681 621.112C762.915 620.653 763.056 620.162 763.106 619.639C763.151 619.104 763.089 618.576 762.92 618.056C762.751 617.536 762.493 617.079 762.146 616.685C761.799 616.292 761.396 615.978 760.936 615.744C760.477 615.51 759.98 615.37 759.445 615.325C758.922 615.275 758.401 615.335 757.881 615.504L739.844 621.365L738.607 617.557L752.836 612.934C753.356 612.765 753.813 612.507 754.207 612.16C754.613 611.809 754.933 611.403 755.167 610.944C755.401 610.485 755.543 609.994 755.592 609.471C755.637 608.936 755.575 608.409 755.406 607.888C755.237 607.368 754.979 606.911 754.632 606.518C754.281 606.111 753.876 605.791 753.417 605.557C752.957 605.323 752.46 605.183 751.925 605.138C751.403 605.089 750.881 605.149 750.361 605.318L734.238 610.557L741.655 633.386L737.847 634.623L729.193 607.986L749.124 601.51C750.164 601.172 751.215 601.056 752.276 601.163C753.334 601.258 754.316 601.541 755.222 602.013C756.137 602.469 756.944 603.097 757.642 603.897C758.352 604.693 758.876 605.611 759.214 606.651C759.476 607.456 759.606 608.256 759.604 609.051C759.598 609.833 759.495 610.592 759.296 611.327C760.124 611.346 760.923 611.49 761.696 611.759C762.48 612.025 763.196 612.395 763.843 612.869C764.502 613.339 765.078 613.912 765.571 614.587C766.073 615.245 766.458 615.989 766.728 616.819ZM788.417 599.257L774.151 603.892C773.755 604.021 773.41 604.222 773.115 604.496C772.817 604.757 772.58 605.06 772.404 605.405C772.229 605.749 772.123 606.119 772.087 606.514C772.051 606.909 772.096 607.299 772.22 607.683L776.856 621.948L773.048 623.186L768.412 608.92C768.111 607.991 768.002 607.068 768.088 606.15C768.173 605.233 768.422 604.378 768.836 603.587C769.245 602.783 769.796 602.076 770.489 601.468C771.181 600.86 771.991 600.405 772.92 600.103L787.186 595.468L788.417 599.257ZM793.461 588.172C793.59 588.568 793.636 588.964 793.6 589.359C793.56 589.741 793.453 590.105 793.277 590.449C793.102 590.794 792.865 591.097 792.566 591.358C792.268 591.619 791.927 591.812 791.543 591.937C791.146 592.066 790.751 592.112 790.356 592.076C789.961 592.04 789.591 591.935 789.246 591.759C788.902 591.583 788.601 591.353 788.344 591.067C788.082 590.768 787.887 590.421 787.759 590.025C787.634 589.641 787.589 589.251 787.625 588.856C787.661 588.461 787.767 588.091 787.943 587.747C788.118 587.402 788.355 587.099 788.654 586.838C788.948 586.564 789.293 586.363 789.69 586.234C790.074 586.11 790.465 586.071 790.864 586.12C791.259 586.156 791.629 586.262 791.973 586.437C792.318 586.613 792.621 586.85 792.882 587.148C793.143 587.447 793.336 587.788 793.461 588.172ZM800.855 614.151L797.047 615.388L790.251 594.472L794.059 593.235L800.855 614.151ZM829.665 604.789L825.857 606.027L820.293 588.9L809.835 592.298C808.918 592.596 808.116 593.055 807.428 593.676C806.748 594.28 806.209 594.982 805.812 595.782C805.411 596.57 805.17 597.428 805.088 598.358C805.016 599.272 805.128 600.187 805.426 601.103C805.723 602.02 806.17 602.826 806.766 603.522C807.37 604.202 808.068 604.749 808.86 605.163C809.647 605.564 810.496 605.815 811.405 605.917C812.323 606.002 813.242 605.902 814.162 605.617L822.725 602.834L823.963 606.642L815.399 609.425C813.963 609.891 812.525 610.058 811.084 609.923C809.64 609.776 808.295 609.385 807.048 608.75C805.809 608.098 804.712 607.229 803.757 606.143C802.798 605.045 802.085 603.777 801.618 602.341C801.151 600.904 800.985 599.466 801.119 598.026C801.254 596.586 801.633 595.244 802.256 594.001C802.887 592.742 803.746 591.634 804.832 590.679C805.914 589.711 807.171 588.988 808.603 588.509L819.061 585.111L816.587 577.495L820.395 576.258L829.665 604.789ZM858.765 596.382C859.067 597.311 859.169 598.236 859.071 599.157C858.986 600.075 858.738 600.936 858.329 601.74C857.932 602.54 857.381 603.246 856.676 603.858C855.984 604.466 855.179 604.919 854.263 605.217L839.05 610.16L837.813 606.352L853.026 601.409C853.41 601.284 853.751 601.091 854.049 600.83C854.348 600.569 854.585 600.266 854.76 599.921C854.936 599.577 855.042 599.207 855.078 598.812C855.126 598.413 855.086 598.015 854.957 597.619L849.084 579.545L838.626 582.943C837.714 583.253 836.914 583.719 836.226 584.339C835.546 584.944 835.007 585.646 834.61 586.446C834.209 587.233 833.965 588.086 833.88 589.003C833.807 589.917 833.92 590.832 834.217 591.748C834.515 592.665 834.962 593.471 835.558 594.167C836.162 594.847 836.86 595.394 837.652 595.808C838.439 596.209 839.288 596.46 840.197 596.562C841.114 596.647 842.033 596.547 842.954 596.262L851.517 593.479L852.754 597.287L844.191 600.07C842.751 600.524 841.31 600.684 839.87 600.55C838.426 600.403 837.08 600.012 835.833 599.376C834.595 598.725 833.498 597.856 832.543 596.77C831.587 595.683 830.876 594.422 830.41 592.986C829.943 591.549 829.777 590.111 829.911 588.671C830.046 587.231 830.424 585.889 831.047 584.646C831.679 583.387 832.537 582.279 833.623 581.324C834.705 580.356 835.963 579.633 837.395 579.154L851.661 574.519L858.765 596.382ZM860.332 566.444C860.461 566.84 860.508 567.236 860.472 567.631C860.432 568.013 860.324 568.377 860.148 568.722C859.973 569.066 859.736 569.369 859.437 569.63C859.139 569.892 858.798 570.085 858.414 570.209C858.018 570.338 857.622 570.384 857.227 570.349C856.832 570.313 856.462 570.207 856.117 570.031C855.773 569.856 855.472 569.625 855.215 569.339C854.954 569.04 854.759 568.693 854.63 568.297C854.505 567.913 854.461 567.523 854.497 567.128C854.533 566.733 854.638 566.364 854.814 566.019C854.989 565.674 855.226 565.372 855.525 565.11C855.819 564.837 856.165 564.635 856.561 564.507C856.945 564.382 857.336 564.344 857.735 564.392C858.13 564.428 858.5 564.534 858.845 564.709C859.189 564.885 859.492 565.122 859.753 565.42C860.015 565.719 860.208 566.06 860.332 566.444ZM867.726 592.423L863.918 593.66L857.122 572.744L860.93 571.507L867.726 592.423ZM877.014 589.405L873.206 590.642L866.41 569.726L880.676 565.091C882.112 564.624 883.553 564.465 884.997 564.611C886.437 564.746 887.782 565.137 889.033 565.785C890.28 566.42 891.383 567.287 892.343 568.385C893.298 569.471 894.009 570.733 894.476 572.169L897.874 582.627L894.066 583.864L890.668 573.407C890.37 572.49 889.917 571.686 889.309 570.994C888.701 570.301 888.003 569.755 887.215 569.353C886.424 568.94 885.569 568.69 884.651 568.605C883.742 568.503 882.827 568.595 881.907 568.881L871.449 572.279L877.014 589.405ZM926.639 574.328C926.941 575.257 927.043 576.182 926.945 577.104C926.86 578.021 926.613 578.882 926.203 579.686C925.806 580.486 925.255 581.192 924.55 581.804C923.858 582.413 923.054 582.866 922.137 583.163L906.924 588.106L905.687 584.299L920.9 579.355C921.284 579.231 921.625 579.038 921.923 578.776C922.222 578.515 922.459 578.212 922.634 577.868C922.81 577.523 922.916 577.153 922.952 576.758C923 576.359 922.96 575.962 922.831 575.565L916.959 557.492L906.501 560.89C905.588 561.2 904.788 561.665 904.1 562.286C903.42 562.89 902.881 563.592 902.484 564.392C902.083 565.18 901.84 566.032 901.754 566.95C901.682 567.863 901.794 568.778 902.092 569.695C902.389 570.611 902.836 571.417 903.432 572.114C904.036 572.794 904.734 573.34 905.526 573.754C906.313 574.155 907.162 574.407 908.071 574.508C908.989 574.594 909.908 574.493 910.828 574.208L919.391 571.426L920.629 575.234L912.065 578.016C910.625 578.47 909.185 578.63 907.744 578.496C906.3 578.349 904.955 577.958 903.708 577.323C902.469 576.671 901.372 575.802 900.417 574.716C899.462 573.63 898.751 572.368 898.284 570.932C897.817 569.495 897.651 568.057 897.785 566.617C897.92 565.177 898.299 563.835 898.922 562.592C899.553 561.333 900.412 560.226 901.498 559.27C902.58 558.303 903.837 557.579 905.269 557.1L919.535 552.465L926.639 574.328ZM952.968 564.726L949.16 565.963L943.596 548.837L937.893 550.69L936.662 546.9L942.364 545.047L939.89 537.431L943.698 536.194L946.172 543.81L959.491 539.483L960.722 543.272L947.404 547.599L952.968 564.726ZM993.945 551.412L990.137 552.649L986.739 542.191C986.442 541.275 985.989 540.47 985.38 539.778C984.772 539.086 984.074 538.539 983.287 538.138C982.495 537.724 981.641 537.475 980.723 537.389C979.814 537.288 978.899 537.38 977.978 537.665L967.521 541.063L973.085 558.189L969.277 559.427L960.007 530.895L963.815 529.658L966.289 537.274L976.747 533.876C978.184 533.409 979.624 533.249 981.068 533.396C982.508 533.53 983.854 533.921 985.105 534.569C986.352 535.204 987.455 536.071 988.414 537.17C989.37 538.256 990.081 539.517 990.547 540.954L993.945 551.412ZM1018.79 527.567C1019.09 528.496 1019.2 529.419 1019.11 530.337C1019.03 531.255 1018.78 532.115 1018.37 532.919C1017.97 533.707 1017.42 534.407 1016.71 535.019C1016.02 535.627 1015.22 536.08 1014.3 536.378L999.718 541.116C1000.17 541.585 1000.68 541.988 1001.24 542.326C1001.8 542.664 1002.39 542.917 1003.01 543.087C1003.62 543.256 1004.26 543.337 1004.91 543.33C1005.58 543.318 1006.24 543.206 1006.9 542.993L1019.35 538.949L1020.58 542.757L1008.14 546.8C1006.7 547.255 1005.26 547.415 1003.82 547.28C1002.37 547.133 1001.03 546.742 999.779 546.107C998.541 545.455 997.444 544.586 996.488 543.5C995.533 542.414 994.822 541.153 994.355 539.716C993.889 538.28 993.722 536.842 993.857 535.401C993.991 533.961 994.37 532.62 994.993 531.377C995.624 530.117 996.483 529.01 997.569 528.055C998.651 527.087 999.909 526.364 1001.34 525.885L1009.98 523.078C1010.89 522.78 1011.81 522.674 1012.73 522.759C1013.66 522.841 1014.52 523.088 1015.31 523.502C1016.11 523.899 1016.82 524.444 1017.42 525.136C1018.03 525.828 1018.49 526.639 1018.79 527.567ZM1013.07 532.589C1013.45 532.464 1013.79 532.271 1014.09 532.01C1014.39 531.748 1014.63 531.446 1014.8 531.101C1014.98 530.756 1015.08 530.387 1015.12 529.992C1015.16 529.597 1015.11 529.201 1014.98 528.805C1014.86 528.421 1014.66 528.08 1014.4 527.781C1014.14 527.483 1013.84 527.246 1013.49 527.07C1013.15 526.895 1012.78 526.789 1012.38 526.753C1011.99 526.705 1011.59 526.743 1011.21 526.868L1002.57 529.674C1001.73 529.948 1000.99 530.354 1000.34 530.892C999.705 531.427 999.182 532.049 998.769 532.758C998.364 533.451 998.085 534.213 997.93 535.043C997.784 535.857 997.784 536.679 997.93 537.508L1013.07 532.589ZM1065.06 529.352C1065.36 530.28 1065.47 531.206 1065.37 532.127C1065.28 533.045 1065.04 533.906 1064.63 534.71C1064.23 535.509 1063.68 536.216 1062.97 536.828C1062.28 537.436 1061.48 537.889 1060.56 538.187L1045.35 543.13L1044.11 539.322L1059.32 534.379C1059.71 534.254 1060.05 534.061 1060.35 533.8C1060.65 533.539 1060.88 533.236 1061.06 532.891C1061.23 532.547 1061.34 532.177 1061.38 531.782C1061.42 531.383 1061.38 530.985 1061.25 530.589L1055.38 512.515L1044.92 515.913C1044.01 516.223 1043.21 516.689 1042.52 517.309C1041.84 517.914 1041.3 518.616 1040.91 519.416C1040.51 520.203 1040.26 521.056 1040.18 521.973C1040.1 522.887 1040.22 523.802 1040.52 524.718C1040.81 525.635 1041.26 526.441 1041.86 527.137C1042.46 527.817 1043.16 528.364 1043.95 528.778C1044.74 529.179 1045.59 529.43 1046.49 529.532C1047.41 529.617 1048.33 529.517 1049.25 529.232L1057.81 526.449L1059.05 530.257L1050.49 533.04C1049.05 533.494 1047.61 533.654 1046.17 533.519C1044.72 533.373 1043.38 532.981 1042.13 532.346C1040.89 531.694 1039.8 530.825 1038.84 529.739C1037.88 528.653 1037.17 527.392 1036.71 525.956C1036.24 524.519 1036.07 523.081 1036.21 521.641C1036.34 520.2 1036.72 518.859 1037.34 517.616C1037.98 516.357 1038.83 515.249 1039.92 514.294C1041 513.326 1042.26 512.603 1043.69 512.124L1057.96 507.489L1065.06 529.352ZM1094.05 518.886L1075.03 525.067C1074.1 525.368 1073.17 525.477 1072.26 525.392C1071.34 525.306 1070.48 525.065 1069.68 524.668C1068.88 524.258 1068.17 523.707 1067.56 523.015C1066.95 522.31 1066.5 521.5 1066.2 520.583C1065.9 519.655 1065.79 518.732 1065.87 517.814C1065.96 516.896 1066.21 516.036 1066.61 515.232C1067.02 514.428 1067.58 513.722 1068.27 513.113C1068.96 512.505 1069.77 512.05 1070.7 511.748L1084 507.427L1085.24 511.235L1071.94 515.556C1071.54 515.685 1071.19 515.886 1070.9 516.16C1070.6 516.421 1070.36 516.724 1070.19 517.068C1070.01 517.413 1069.91 517.783 1069.87 518.178C1069.84 518.573 1069.88 518.962 1070.01 519.346C1070.13 519.742 1070.33 520.09 1070.59 520.388C1070.85 520.674 1071.15 520.905 1071.49 521.081C1071.84 521.256 1072.21 521.362 1072.6 521.398C1073 521.434 1073.39 521.388 1073.79 521.259L1089 516.316L1085.6 505.858C1085.48 505.474 1085.28 505.135 1085.01 504.84C1084.75 504.542 1084.44 504.305 1084.1 504.129C1083.75 503.954 1083.38 503.848 1082.99 503.812C1082.59 503.764 1082.2 503.802 1081.81 503.927L1066.6 508.87L1065.37 505.08L1080.58 500.137C1081.51 499.836 1082.44 499.727 1083.35 499.812C1084.27 499.898 1085.13 500.145 1085.94 500.555C1086.74 500.952 1087.44 501.497 1088.05 502.189C1088.66 502.881 1089.11 503.692 1089.41 504.621L1094.05 518.886ZM1120.65 498.681C1121.12 500.118 1121.28 501.562 1121.15 503.015C1121.02 504.455 1120.64 505.805 1120 507.064C1119.37 508.311 1118.51 509.418 1117.43 510.386C1116.34 511.341 1115.08 512.052 1113.64 512.519L1105.1 515.295L1103.86 511.487L1112.41 508.711C1113.32 508.401 1114.12 507.944 1114.8 507.339C1115.48 506.719 1116.03 506.015 1116.43 505.227C1116.83 504.427 1117.07 503.575 1117.16 502.669C1117.25 501.752 1117.14 500.835 1116.84 499.918C1116.54 499.002 1116.09 498.198 1115.48 497.505C1114.87 496.801 1114.17 496.248 1113.38 495.847C1112.59 495.433 1111.74 495.183 1110.82 495.098C1109.91 494.997 1109 495.095 1108.08 495.392L1097.62 498.79L1105.66 523.533L1101.85 524.77L1092.58 496.238L1106.85 491.603C1108.29 491.149 1109.73 490.995 1111.18 491.142C1112.62 491.276 1113.96 491.667 1115.21 492.315C1116.46 492.95 1117.56 493.811 1118.52 494.897C1119.47 495.983 1120.18 497.245 1120.65 498.681ZM1163.71 484.691C1164.17 486.127 1164.34 487.566 1164.21 489.006C1164.07 490.446 1163.69 491.796 1163.06 493.055C1162.42 494.302 1161.56 495.409 1160.48 496.377C1159.39 497.332 1158.13 498.05 1156.7 498.529L1142.44 503.164L1133.17 474.632L1136.97 473.395L1145.01 498.119L1155.47 494.721C1156.38 494.423 1157.18 493.972 1157.86 493.368C1158.55 492.747 1159.09 492.043 1159.49 491.255C1159.89 490.455 1160.13 489.597 1160.22 488.679C1160.3 487.762 1160.2 486.845 1159.9 485.928C1159.6 485.012 1159.15 484.207 1158.54 483.515C1157.93 482.823 1157.23 482.276 1156.45 481.875C1155.65 481.461 1154.8 481.212 1153.88 481.127C1152.97 481.025 1152.06 481.117 1151.14 481.402L1142.59 484.179L1141.36 480.389L1149.91 477.613C1151.34 477.146 1152.78 476.986 1154.23 477.133C1155.67 477.267 1157.01 477.659 1158.26 478.306C1159.51 478.942 1160.61 479.809 1161.57 480.907C1162.53 481.993 1163.24 483.254 1163.71 484.691ZM1190.95 471.631C1191.25 472.559 1191.36 473.482 1191.27 474.4C1191.18 475.318 1190.94 476.178 1190.53 476.982C1190.13 477.77 1189.57 478.47 1188.87 479.082C1188.18 479.69 1187.37 480.143 1186.46 480.441L1171.87 485.179C1172.33 485.648 1172.84 486.051 1173.4 486.389C1173.96 486.727 1174.55 486.98 1175.16 487.15C1175.78 487.319 1176.42 487.4 1177.07 487.393C1177.74 487.381 1178.4 487.269 1179.06 487.056L1191.5 483.012L1192.74 486.82L1180.29 490.864C1178.85 491.318 1177.41 491.478 1175.97 491.343C1174.53 491.197 1173.18 490.805 1171.94 490.17C1170.7 489.518 1169.6 488.649 1168.64 487.563C1167.69 486.477 1166.98 485.216 1166.51 483.78C1166.04 482.343 1165.88 480.905 1166.01 479.465C1166.15 478.024 1166.53 476.683 1167.15 475.44C1167.78 474.181 1168.64 473.073 1169.73 472.118C1170.81 471.15 1172.06 470.427 1173.5 469.948L1182.13 467.141C1183.05 466.844 1183.97 466.737 1184.89 466.822C1185.82 466.904 1186.68 467.151 1187.47 467.565C1188.27 467.962 1188.97 468.507 1189.58 469.199C1190.19 469.891 1190.64 470.702 1190.95 471.631ZM1185.22 476.652C1185.61 476.527 1185.95 476.334 1186.25 476.073C1186.55 475.812 1186.78 475.509 1186.96 475.164C1187.13 474.82 1187.24 474.45 1187.28 474.055C1187.31 473.66 1187.27 473.264 1187.14 472.868C1187.01 472.484 1186.82 472.143 1186.56 471.844C1186.3 471.546 1185.99 471.309 1185.65 471.133C1185.31 470.958 1184.94 470.852 1184.54 470.816C1184.14 470.768 1183.75 470.806 1183.37 470.931L1174.73 473.737C1173.89 474.011 1173.14 474.417 1172.5 474.955C1171.86 475.49 1171.34 476.112 1170.92 476.821C1170.52 477.514 1170.24 478.276 1170.09 479.106C1169.94 479.921 1169.94 480.742 1170.09 481.571L1185.22 476.652ZM1206.67 482.293L1202.86 483.53L1197.3 466.404L1191.59 468.257L1190.36 464.468L1196.07 462.615L1193.59 454.999L1197.4 453.762L1199.87 461.377L1213.19 457.05L1214.42 460.839L1201.11 465.167L1206.67 482.293ZM1250.56 456.469C1251.03 457.905 1251.2 459.35 1251.07 460.802C1250.93 462.243 1250.55 463.592 1249.92 464.852C1249.29 466.099 1248.43 467.206 1247.34 468.174C1246.26 469.129 1245 469.84 1243.56 470.307L1233.03 473.729C1231.59 474.196 1230.15 474.362 1228.71 474.227C1227.27 474.08 1225.92 473.689 1224.68 473.054C1223.44 472.402 1222.34 471.533 1221.39 470.447C1220.43 469.349 1219.71 468.081 1219.25 466.645L1215.85 456.187L1219.66 454.95L1223.05 465.407C1223.35 466.324 1223.8 467.13 1224.4 467.827C1225 468.506 1225.7 469.053 1226.49 469.467C1227.28 469.868 1228.12 470.12 1229.03 470.221C1229.95 470.306 1230.87 470.206 1231.79 469.921L1235.17 468.822L1229.61 451.715L1233.38 450.489L1238.94 467.597L1242.32 466.499C1243.24 466.189 1244.03 465.731 1244.71 465.127C1245.4 464.507 1245.94 463.802 1246.35 463.015C1246.74 462.215 1246.99 461.362 1247.08 460.457C1247.16 459.54 1247.05 458.623 1246.76 457.706L1243.36 447.248L1247.17 446.011L1250.56 456.469ZM1278.81 443.083C1279.11 444.011 1279.22 444.935 1279.13 445.852C1279.05 446.77 1278.8 447.631 1278.39 448.435C1277.99 449.222 1277.43 449.922 1276.73 450.534C1276.04 451.143 1275.23 451.596 1274.32 451.893L1259.74 456.631C1260.19 457.1 1260.7 457.503 1261.26 457.841C1261.82 458.179 1262.41 458.432 1263.03 458.602C1263.64 458.771 1264.28 458.852 1264.93 458.845C1265.6 458.833 1266.26 458.721 1266.92 458.508L1279.36 454.464L1280.6 458.272L1268.15 462.316C1266.71 462.77 1265.27 462.93 1263.83 462.796C1262.39 462.649 1261.04 462.258 1259.8 461.622C1258.56 460.971 1257.46 460.102 1256.51 459.016C1255.55 457.929 1254.84 456.668 1254.37 455.232C1253.91 453.795 1253.74 452.357 1253.87 450.917C1254.01 449.477 1254.39 448.135 1255.01 446.892C1255.64 445.633 1256.5 444.525 1257.59 443.57C1258.67 442.602 1259.93 441.879 1261.36 441.4L1270 438.593C1270.91 438.296 1271.83 438.189 1272.75 438.275C1273.68 438.356 1274.54 438.603 1275.33 439.017C1276.13 439.414 1276.83 439.959 1277.44 440.651C1278.05 441.343 1278.5 442.154 1278.81 443.083ZM1273.09 448.104C1273.47 447.979 1273.81 447.786 1274.11 447.525C1274.41 447.264 1274.65 446.961 1274.82 446.616C1275 446.272 1275.1 445.902 1275.14 445.507C1275.17 445.112 1275.13 444.716 1275 444.32C1274.87 443.936 1274.68 443.595 1274.42 443.296C1274.16 442.998 1273.86 442.761 1273.51 442.585C1273.17 442.41 1272.8 442.304 1272.4 442.268C1272 442.22 1271.61 442.258 1271.23 442.383L1262.59 445.189C1261.75 445.463 1261 445.869 1260.36 446.408C1259.72 446.942 1259.2 447.564 1258.79 448.273C1258.38 448.966 1258.1 449.728 1257.95 450.558C1257.8 451.373 1257.8 452.194 1257.95 453.023L1273.09 448.104ZM1306.89 433.957C1307.19 434.886 1307.3 435.809 1307.22 436.727C1307.13 437.644 1306.88 438.505 1306.48 439.309C1306.07 440.096 1305.52 440.796 1304.82 441.409C1304.12 442.017 1303.32 442.47 1302.4 442.768L1287.82 447.506C1288.28 447.974 1288.78 448.378 1289.34 448.715C1289.91 449.053 1290.49 449.307 1291.11 449.476C1291.73 449.646 1292.36 449.727 1293.02 449.719C1293.68 449.708 1294.35 449.595 1295 449.382L1307.45 445.338L1308.69 449.146L1296.24 453.19C1294.8 453.644 1293.36 453.804 1291.92 453.67C1290.48 453.523 1289.13 453.132 1287.88 452.497C1286.64 451.845 1285.55 450.976 1284.59 449.89C1283.64 448.804 1282.93 447.542 1282.46 446.106C1281.99 444.67 1281.83 443.231 1281.96 441.791C1282.09 440.351 1282.47 439.009 1283.1 437.766C1283.73 436.507 1284.59 435.4 1285.67 434.444C1286.75 433.477 1288.01 432.753 1289.44 432.274L1298.08 429.468C1299 429.17 1299.92 429.064 1300.83 429.149C1301.76 429.23 1302.62 429.478 1303.42 429.891C1304.21 430.288 1304.92 430.833 1305.53 431.525C1306.14 432.218 1306.59 433.028 1306.89 433.957ZM1301.17 438.978C1301.56 438.854 1301.9 438.661 1302.2 438.399C1302.49 438.138 1302.73 437.835 1302.91 437.491C1303.08 437.146 1303.19 436.776 1303.22 436.381C1303.26 435.986 1303.21 435.591 1303.08 435.194C1302.96 434.81 1302.77 434.469 1302.51 434.171C1302.24 433.872 1301.94 433.635 1301.6 433.46C1301.25 433.284 1300.88 433.178 1300.49 433.143C1300.09 433.094 1299.7 433.132 1299.31 433.257L1290.68 436.064C1289.83 436.337 1289.09 436.743 1288.44 437.282C1287.81 437.817 1287.29 438.438 1286.87 439.148C1286.47 439.841 1286.19 440.602 1286.03 441.433C1285.89 442.247 1285.89 443.068 1286.03 443.897L1301.17 438.978ZM1319.07 445.772L1315.26 447.01L1308.47 426.094L1322.73 421.459C1324.17 420.992 1325.61 420.832 1327.05 420.979C1328.49 421.113 1329.84 421.504 1331.09 422.152C1332.34 422.787 1333.44 423.654 1334.4 424.753C1335.35 425.839 1336.06 427.1 1336.53 428.537L1339.93 438.995L1336.12 440.232L1332.72 429.774C1332.43 428.858 1331.97 428.053 1331.36 427.361C1330.76 426.669 1330.06 426.122 1329.27 425.721C1328.48 425.307 1327.62 425.058 1326.71 424.972C1325.8 424.871 1324.88 424.963 1323.96 425.248L1313.5 428.646L1319.07 445.772ZM1379.04 410.515C1379.34 411.444 1379.45 412.367 1379.36 413.285C1379.28 414.202 1379.03 415.063 1378.62 415.867C1378.22 416.655 1377.67 417.355 1376.96 417.967C1376.27 418.575 1375.47 419.028 1374.55 419.326L1359.97 424.064C1360.42 424.532 1360.93 424.936 1361.49 425.274C1362.05 425.611 1362.64 425.865 1363.26 426.034C1363.87 426.204 1364.51 426.285 1365.16 426.277C1365.83 426.266 1366.49 426.154 1367.15 425.94L1379.59 421.897L1380.83 425.704L1368.39 429.748C1366.95 430.203 1365.51 430.363 1364.07 430.228C1362.62 430.081 1361.28 429.69 1360.03 429.055C1358.79 428.403 1357.69 427.534 1356.74 426.448C1355.78 425.362 1355.07 424.101 1354.61 422.664C1354.14 421.228 1353.97 419.789 1354.11 418.349C1354.24 416.909 1354.62 415.567 1355.24 414.325C1355.87 413.065 1356.73 411.958 1357.82 411.003C1358.9 410.035 1360.16 409.312 1361.59 408.832L1370.23 406.026C1371.14 405.728 1372.06 405.622 1372.98 405.707C1373.91 405.788 1374.77 406.036 1375.56 406.449C1376.36 406.847 1377.07 407.391 1377.67 408.084C1378.28 408.776 1378.74 409.586 1379.04 410.515ZM1373.32 415.536C1373.7 415.412 1374.04 415.219 1374.34 414.957C1374.64 414.696 1374.88 414.393 1375.05 414.049C1375.23 413.704 1375.33 413.334 1375.37 412.939C1375.41 412.544 1375.36 412.149 1375.23 411.752C1375.11 411.369 1374.91 411.027 1374.65 410.729C1374.39 410.43 1374.09 410.193 1373.74 410.018C1373.4 409.842 1373.03 409.737 1372.63 409.701C1372.23 409.652 1371.84 409.691 1371.46 409.815L1362.82 412.622C1361.98 412.895 1361.24 413.302 1360.59 413.84C1359.96 414.375 1359.43 414.997 1359.02 415.706C1358.61 416.399 1358.33 417.16 1358.18 417.991C1358.03 418.805 1358.03 419.627 1358.18 420.455L1373.32 415.536ZM1410.74 415.987L1406.93 417.225L1401.37 400.098L1390.91 403.496C1389.99 403.794 1389.19 404.253 1388.5 404.874C1387.82 405.478 1387.28 406.18 1386.89 406.98C1386.48 407.768 1386.24 408.626 1386.16 409.556C1386.09 410.47 1386.2 411.385 1386.5 412.301C1386.8 413.218 1387.24 414.024 1387.84 414.72C1388.44 415.4 1389.14 415.947 1389.93 416.361C1390.72 416.762 1391.57 417.013 1392.48 417.115C1393.4 417.2 1394.31 417.1 1395.24 416.815L1403.8 414.032L1405.04 417.84L1396.47 420.623C1395.04 421.089 1393.6 421.255 1392.16 421.121C1390.71 420.974 1389.37 420.583 1388.12 419.948C1386.88 419.296 1385.79 418.427 1384.83 417.341C1383.87 416.242 1383.16 414.975 1382.69 413.539C1382.22 412.102 1382.06 410.664 1382.19 409.224C1382.33 407.783 1382.71 406.442 1383.33 405.199C1383.96 403.94 1384.82 402.832 1385.9 401.877C1386.99 400.909 1388.24 400.186 1389.68 399.707L1400.13 396.309L1397.66 388.693L1401.47 387.456L1410.74 415.987ZM1440.51 406.312L1426.25 410.948C1424.81 411.414 1423.37 411.581 1421.93 411.446C1420.49 411.299 1419.14 410.908 1417.9 410.273C1416.66 409.621 1415.56 408.752 1414.61 407.666C1413.65 406.568 1412.93 405.3 1412.47 403.864L1409.07 393.406L1412.88 392.168L1416.28 402.626C1416.57 403.543 1417.02 404.349 1417.62 405.045C1418.22 405.725 1418.92 406.272 1419.71 406.686C1420.5 407.087 1421.35 407.338 1422.25 407.44C1423.17 407.525 1424.09 407.425 1425.01 407.14L1435.47 403.742L1429.91 386.634L1433.72 385.397L1440.51 406.312ZM1467.5 397.543L1455.06 401.587C1453.62 402.041 1452.18 402.201 1450.74 402.066C1449.29 401.92 1447.95 401.529 1446.7 400.893C1445.46 400.241 1444.37 399.373 1443.41 398.286C1442.46 397.2 1441.74 395.939 1441.28 394.503C1440.81 393.066 1440.64 391.628 1440.78 390.188C1440.91 388.735 1441.29 387.387 1441.91 386.144C1442.54 384.885 1443.4 383.778 1444.49 382.822C1445.57 381.855 1446.83 381.138 1448.26 380.671L1460.71 376.627L1461.94 380.416L1449.49 384.46C1448.58 384.77 1447.78 385.236 1447.09 385.856C1446.41 386.461 1445.88 387.163 1445.48 387.963C1445.08 388.75 1444.83 389.603 1444.75 390.52C1444.68 391.434 1444.79 392.349 1445.09 393.265C1445.38 394.182 1445.83 394.988 1446.43 395.684C1447.03 396.377 1447.73 396.93 1448.53 397.343C1449.31 397.744 1450.16 397.996 1451.07 398.098C1451.99 398.183 1452.91 398.076 1453.82 397.779L1466.27 393.735L1467.5 397.543ZM1495.5 388.447L1476.48 394.628C1475.55 394.93 1474.62 395.038 1473.71 394.953C1472.79 394.867 1471.93 394.626 1471.13 394.229C1470.33 393.819 1469.62 393.268 1469.01 392.576C1468.4 391.871 1467.95 391.061 1467.65 390.145C1467.35 389.216 1467.24 388.293 1467.32 387.375C1467.41 386.457 1467.66 385.597 1468.06 384.793C1468.47 383.989 1469.03 383.283 1469.72 382.674C1470.41 382.066 1471.22 381.611 1472.15 381.309L1485.45 376.988L1486.69 380.796L1473.39 385.117C1472.99 385.246 1472.64 385.447 1472.35 385.721C1472.05 385.982 1471.81 386.285 1471.64 386.629C1471.46 386.974 1471.36 387.344 1471.32 387.739C1471.29 388.134 1471.33 388.523 1471.46 388.907C1471.58 389.304 1471.78 389.651 1472.04 389.949C1472.3 390.235 1472.6 390.466 1472.94 390.642C1473.29 390.817 1473.66 390.923 1474.05 390.959C1474.45 390.995 1474.84 390.949 1475.24 390.82L1490.45 385.877L1487.05 375.419C1486.93 375.035 1486.73 374.696 1486.46 374.401C1486.2 374.103 1485.89 373.866 1485.55 373.69C1485.2 373.515 1484.83 373.409 1484.44 373.373C1484.04 373.325 1483.65 373.363 1483.26 373.488L1468.05 378.431L1466.82 374.641L1482.03 369.698C1482.96 369.397 1483.89 369.288 1484.8 369.373C1485.72 369.459 1486.58 369.706 1487.39 370.116C1488.18 370.513 1488.89 371.058 1489.5 371.75C1490.11 372.442 1490.56 373.253 1490.86 374.182L1495.5 388.447ZM1508.18 384.325L1504.38 385.562L1498.81 368.436L1493.11 370.289L1491.88 366.5L1497.58 364.647L1495.11 357.031L1498.91 355.793L1501.39 363.409L1514.71 359.082L1515.94 362.871L1502.62 367.199L1508.18 384.325ZM1520.91 351.81C1521.04 352.206 1521.08 352.602 1521.05 352.997C1521.01 353.379 1520.9 353.743 1520.72 354.088C1520.55 354.432 1520.31 354.735 1520.01 354.996C1519.71 355.258 1519.37 355.451 1518.99 355.575C1518.59 355.704 1518.2 355.75 1517.8 355.714C1517.41 355.679 1517.04 355.573 1516.69 355.397C1516.35 355.222 1516.05 354.991 1515.79 354.705C1515.53 354.406 1515.33 354.059 1515.21 353.663C1515.08 353.279 1515.04 352.889 1515.07 352.494C1515.11 352.099 1515.21 351.73 1515.39 351.385C1515.57 351.04 1515.8 350.738 1516.1 350.476C1516.39 350.203 1516.74 350.001 1517.14 349.873C1517.52 349.748 1517.91 349.71 1518.31 349.758C1518.71 349.794 1519.08 349.9 1519.42 350.075C1519.76 350.251 1520.07 350.488 1520.33 350.786C1520.59 351.085 1520.78 351.426 1520.91 351.81ZM1528.3 377.789L1524.49 379.026L1517.7 358.11L1521.51 356.873L1528.3 377.789ZM1555.68 357.33C1556.15 358.767 1556.32 360.205 1556.18 361.645C1556.05 363.085 1555.66 364.435 1555.03 365.694C1554.41 366.937 1553.56 368.042 1552.48 369.01C1551.39 369.965 1550.13 370.683 1548.7 371.162L1542.85 373.063C1541.41 373.517 1539.97 373.677 1538.53 373.543C1537.08 373.396 1535.74 373.005 1534.49 372.369C1533.25 371.718 1532.15 370.849 1531.2 369.763C1530.24 368.677 1529.53 367.415 1529.06 365.979C1528.6 364.542 1528.43 363.104 1528.57 361.664C1528.7 360.211 1529.07 358.864 1529.7 357.621C1530.33 356.361 1531.19 355.254 1532.27 354.299C1533.35 353.331 1534.61 352.614 1536.05 352.147L1541.9 350.246C1542.85 349.936 1543.82 349.76 1544.79 349.718C1545.76 349.676 1546.71 349.759 1547.62 349.968C1548.54 350.177 1549.42 350.501 1550.26 350.939C1551.1 351.366 1551.86 351.897 1552.56 352.532C1553.26 353.155 1553.87 353.872 1554.41 354.683C1554.95 355.494 1555.37 356.376 1555.68 357.33ZM1551.89 358.561C1551.6 357.645 1551.14 356.841 1550.53 356.148C1549.93 355.456 1549.23 354.909 1548.44 354.508C1547.65 354.094 1546.79 353.845 1545.88 353.76C1544.97 353.658 1544.05 353.75 1543.13 354.035L1537.28 355.936C1536.37 356.247 1535.57 356.712 1534.88 357.333C1534.2 357.937 1533.66 358.639 1533.26 359.439C1532.86 360.226 1532.62 361.079 1532.54 361.997C1532.46 362.91 1532.57 363.825 1532.87 364.742C1533.17 365.658 1533.62 366.464 1534.21 367.161C1534.82 367.853 1535.52 368.406 1536.31 368.819C1537.1 369.221 1537.95 369.472 1538.86 369.574C1539.78 369.659 1540.69 369.553 1541.61 369.255L1547.46 367.354C1548.38 367.056 1549.17 366.605 1549.85 366.001C1550.54 365.38 1551.09 364.676 1551.49 363.888C1551.89 363.089 1552.13 362.23 1552.21 361.312C1552.3 360.395 1552.19 359.478 1551.89 358.561ZM1567.05 365.199L1563.24 366.436L1556.45 345.52L1570.71 340.885C1572.15 340.418 1573.59 340.258 1575.03 340.405C1576.47 340.54 1577.82 340.931 1579.07 341.578C1580.32 342.214 1581.42 343.081 1582.38 344.179C1583.33 345.265 1584.05 346.526 1584.51 347.963L1587.91 358.421L1584.1 359.658L1580.7 349.2C1580.41 348.284 1579.95 347.479 1579.34 346.787C1578.74 346.095 1578.04 345.548 1577.25 345.147C1576.46 344.733 1575.61 344.484 1574.69 344.399C1573.78 344.297 1572.86 344.389 1571.94 344.674L1561.49 348.072L1567.05 365.199ZM1631.13 344.376L1612.11 350.557C1611.18 350.858 1610.26 350.967 1609.34 350.881C1608.43 350.796 1607.57 350.555 1606.77 350.158C1605.96 349.748 1605.26 349.197 1604.65 348.505C1604.04 347.8 1603.58 346.99 1603.28 346.073C1602.98 345.145 1602.87 344.221 1602.96 343.304C1603.04 342.386 1603.29 341.525 1603.7 340.722C1604.11 339.918 1604.66 339.211 1605.35 338.603C1606.05 337.995 1606.86 337.54 1607.79 337.238L1621.09 332.917L1622.32 336.725L1609.02 341.046C1608.63 341.175 1608.28 341.376 1607.99 341.65C1607.69 341.911 1607.45 342.214 1607.28 342.558C1607.1 342.903 1607 343.273 1606.96 343.668C1606.92 344.063 1606.97 344.452 1607.09 344.836C1607.22 345.232 1607.42 345.58 1607.68 345.878C1607.93 346.164 1608.24 346.395 1608.58 346.571C1608.92 346.746 1609.29 346.852 1609.69 346.888C1610.08 346.924 1610.48 346.877 1610.88 346.749L1626.09 341.806L1622.69 331.348C1622.57 330.964 1622.37 330.625 1622.09 330.33C1621.83 330.032 1621.53 329.795 1621.19 329.619C1620.84 329.444 1620.47 329.338 1620.08 329.302C1619.68 329.254 1619.29 329.292 1618.9 329.417L1603.69 334.36L1602.46 330.57L1617.67 325.627C1618.6 325.325 1619.52 325.217 1620.44 325.302C1621.36 325.388 1622.22 325.635 1623.02 326.045C1623.82 326.442 1624.53 326.987 1625.13 327.679C1625.74 328.371 1626.2 329.182 1626.5 330.11L1631.13 344.376ZM1640.27 341.407L1636.47 342.644L1629.67 321.728L1643.94 317.093C1645.37 316.626 1646.81 316.466 1648.26 316.613C1649.7 316.748 1651.04 317.139 1652.29 317.786C1653.54 318.422 1654.64 319.289 1655.6 320.387C1656.56 321.473 1657.27 322.735 1657.74 324.171L1661.13 334.629L1657.33 335.866L1653.93 325.408C1653.63 324.492 1653.18 323.688 1652.57 322.995C1651.96 322.303 1651.26 321.756 1650.48 321.355C1649.68 320.941 1648.83 320.692 1647.91 320.607C1647 320.505 1646.09 320.597 1645.17 320.882L1634.71 324.28L1640.27 341.407ZM1689.59 325.383L1685.78 326.62L1680.22 309.493L1669.76 312.891C1668.84 313.189 1668.04 313.648 1667.35 314.269C1666.67 314.873 1666.14 315.575 1665.74 316.375C1665.34 317.163 1665.1 318.022 1665.01 318.952C1664.94 319.865 1665.05 320.78 1665.35 321.696C1665.65 322.613 1666.1 323.419 1666.69 324.115C1667.3 324.795 1667.99 325.342 1668.79 325.756C1669.57 326.157 1670.42 326.409 1671.33 326.51C1672.25 326.595 1673.17 326.495 1674.09 326.21L1682.65 323.428L1683.89 327.235L1675.33 330.018C1673.89 330.485 1672.45 330.651 1671.01 330.516C1669.57 330.369 1668.22 329.978 1666.97 329.343C1665.74 328.691 1664.64 327.822 1663.68 326.736C1662.72 325.638 1662.01 324.37 1661.54 322.934C1661.08 321.497 1660.91 320.059 1661.05 318.619C1661.18 317.179 1661.56 315.837 1662.18 314.594C1662.81 313.335 1663.67 312.228 1664.76 311.272C1665.84 310.305 1667.1 309.581 1668.53 309.102L1678.99 305.704L1676.51 298.088L1680.32 296.851L1689.59 325.383ZM1716.23 316.728L1712.42 317.965L1706.86 300.839L1701.15 302.691L1699.92 298.902L1705.62 297.049L1703.15 289.433L1706.96 288.196L1709.43 295.812L1722.75 291.484L1723.98 295.274L1710.66 299.601L1716.23 316.728ZM1751.99 289.335C1752.3 290.263 1752.4 291.187 1752.32 292.104C1752.23 293.022 1751.99 293.883 1751.58 294.687C1751.18 295.474 1750.62 296.174 1749.92 296.786C1749.23 297.395 1748.42 297.848 1747.51 298.145L1732.92 302.883C1733.38 303.352 1733.88 303.755 1734.45 304.093C1735.01 304.431 1735.6 304.684 1736.21 304.854C1736.83 305.023 1737.46 305.104 1738.12 305.097C1738.79 305.085 1739.45 304.973 1740.1 304.76L1752.55 300.716L1753.79 304.524L1741.34 308.568C1739.9 309.022 1738.46 309.182 1737.02 309.048C1735.58 308.901 1734.23 308.51 1732.98 307.874C1731.75 307.222 1730.65 306.354 1729.69 305.267C1728.74 304.181 1728.03 302.92 1727.56 301.484C1727.09 300.047 1726.93 298.609 1727.06 297.169C1727.2 295.728 1727.58 294.387 1728.2 293.144C1728.83 291.885 1729.69 290.777 1730.77 289.822C1731.86 288.854 1733.11 288.131 1734.55 287.652L1743.18 284.845C1744.1 284.548 1745.02 284.441 1745.93 284.527C1746.86 284.608 1747.73 284.855 1748.52 285.269C1749.32 285.666 1750.02 286.211 1750.63 286.903C1751.24 287.595 1751.69 288.406 1751.99 289.335ZM1746.27 294.356C1746.66 294.231 1747 294.038 1747.3 293.777C1747.6 293.516 1747.83 293.213 1748.01 292.868C1748.18 292.524 1748.29 292.154 1748.33 291.759C1748.36 291.364 1748.32 290.968 1748.19 290.572C1748.06 290.188 1747.87 289.847 1747.61 289.548C1747.35 289.25 1747.04 289.013 1746.7 288.837C1746.35 288.662 1745.98 288.556 1745.59 288.52C1745.19 288.472 1744.8 288.51 1744.41 288.635L1735.78 291.441C1734.94 291.715 1734.19 292.121 1733.54 292.66C1732.91 293.194 1732.39 293.816 1731.97 294.525C1731.57 295.218 1731.29 295.98 1731.14 296.81C1730.99 297.625 1730.99 298.446 1731.13 299.275L1746.27 294.356ZM1781.87 295.398L1769.43 299.442C1767.99 299.896 1766.55 300.056 1765.11 299.922C1763.66 299.775 1762.32 299.384 1761.07 298.749C1759.83 298.097 1758.73 297.228 1757.78 296.142C1756.82 295.056 1756.11 293.794 1755.65 292.358C1755.18 290.921 1755.01 289.483 1755.15 288.043C1755.28 286.59 1755.66 285.243 1756.28 284C1756.91 282.74 1757.77 281.633 1758.85 280.678C1759.94 279.71 1761.2 278.993 1762.63 278.526L1775.08 274.482L1776.31 278.272L1763.86 282.316C1762.95 282.626 1762.15 283.091 1761.46 283.712C1760.78 284.316 1760.24 285.018 1759.85 285.818C1759.45 286.606 1759.2 287.458 1759.12 288.376C1759.04 289.289 1759.16 290.204 1759.45 291.121C1759.75 292.037 1760.2 292.843 1760.79 293.54C1761.4 294.232 1762.1 294.785 1762.89 295.199C1763.68 295.6 1764.53 295.851 1765.44 295.953C1766.36 296.038 1767.27 295.932 1768.19 295.634L1780.64 291.59L1781.87 295.398ZM1810.7 286.031L1806.89 287.268L1803.5 276.811C1803.2 275.894 1802.75 275.09 1802.14 274.398C1801.53 273.705 1800.83 273.159 1800.04 272.757C1799.25 272.344 1798.4 272.094 1797.48 272.009C1796.57 271.907 1795.66 271.999 1794.74 272.285L1784.28 275.683L1789.84 292.809L1786.03 294.046L1776.76 265.515L1780.57 264.277L1783.05 271.893L1793.5 268.495C1794.94 268.029 1796.38 267.869 1797.83 268.015C1799.27 268.15 1800.61 268.541 1801.86 269.189C1803.11 269.824 1804.21 270.691 1805.17 271.789C1806.13 272.876 1806.84 274.137 1807.3 275.573L1810.7 286.031ZM1819.64 283.128L1815.83 284.365L1809.03 263.45L1823.3 258.814C1824.74 258.348 1826.18 258.188 1827.62 258.334C1829.06 258.469 1830.41 258.86 1831.66 259.508C1832.9 260.143 1834.01 261.01 1834.97 262.109C1835.92 263.195 1836.63 264.456 1837.1 265.892L1840.5 276.35L1836.69 277.588L1833.29 267.13C1832.99 266.213 1832.54 265.409 1831.93 264.717C1831.32 264.024 1830.63 263.478 1829.84 263.076C1829.05 262.663 1828.19 262.413 1827.27 262.328C1826.37 262.226 1825.45 262.318 1824.53 262.604L1814.07 266.002L1819.64 283.128ZM1867.53 256.006C1867.99 257.443 1868.16 258.881 1868.02 260.321C1867.89 261.761 1867.51 263.111 1866.88 264.37C1866.25 265.613 1865.4 266.719 1864.32 267.686C1863.23 268.642 1861.97 269.359 1860.54 269.838L1854.69 271.739C1853.25 272.194 1851.81 272.353 1850.37 272.219C1848.92 272.072 1847.58 271.681 1846.33 271.046C1845.09 270.394 1844 269.525 1843.04 268.439C1842.08 267.353 1841.37 266.092 1840.91 264.655C1840.44 263.219 1840.27 261.78 1840.41 260.34C1840.54 258.888 1840.92 257.54 1841.54 256.297C1842.17 255.038 1843.03 253.93 1844.11 252.975C1845.2 252.007 1846.46 251.29 1847.89 250.823L1853.74 248.922C1854.7 248.612 1855.66 248.436 1856.63 248.394C1857.6 248.352 1858.55 248.436 1859.47 248.644C1860.38 248.853 1861.26 249.177 1862.1 249.616C1862.94 250.042 1863.71 250.573 1864.41 251.208C1865.1 251.831 1865.72 252.548 1866.25 253.359C1866.79 254.17 1867.22 255.053 1867.53 256.006ZM1863.74 257.237C1863.44 256.321 1862.99 255.517 1862.38 254.824C1861.77 254.132 1861.07 253.585 1860.28 253.184C1859.49 252.771 1858.64 252.521 1857.72 252.436C1856.81 252.334 1855.9 252.426 1854.98 252.712L1849.12 254.613C1848.21 254.923 1847.41 255.388 1846.72 256.009C1846.04 256.613 1845.5 257.315 1845.11 258.115C1844.71 258.903 1844.46 259.755 1844.38 260.673C1844.3 261.586 1844.42 262.501 1844.72 263.418C1845.01 264.334 1845.46 265.141 1846.06 265.837C1846.66 266.529 1847.36 267.082 1848.16 267.496C1848.94 267.897 1849.79 268.148 1850.7 268.25C1851.62 268.335 1852.54 268.229 1853.45 267.931L1859.3 266.03C1860.22 265.732 1861.02 265.281 1861.7 264.677C1862.39 264.056 1862.93 263.352 1863.33 262.565C1863.73 261.765 1863.97 260.906 1864.06 259.988C1864.14 259.071 1864.03 258.154 1863.74 257.237ZM1882.55 262.686L1881.6 262.994C1880.68 263.296 1879.75 263.404 1878.83 263.319C1877.92 263.233 1877.06 262.992 1876.26 262.595C1875.45 262.185 1874.75 261.634 1874.14 260.942C1873.53 260.237 1873.07 259.427 1872.78 258.511L1865.67 236.629L1869.47 235.392L1876.58 257.273C1876.71 257.67 1876.91 258.017 1877.17 258.315C1877.43 258.601 1877.73 258.832 1878.07 259.008C1878.42 259.183 1878.79 259.289 1879.18 259.325C1879.58 259.361 1879.97 259.315 1880.37 259.186L1881.31 258.878L1882.55 262.686ZM1907.76 242.933C1908.23 244.37 1908.39 245.808 1908.26 247.248C1908.12 248.689 1907.74 250.038 1907.11 251.298C1906.49 252.541 1905.63 253.646 1904.55 254.613C1903.47 255.569 1902.21 256.286 1900.77 256.765L1894.92 258.666C1893.48 259.121 1892.04 259.281 1890.6 259.146C1889.16 258.999 1887.81 258.608 1886.57 257.973C1885.33 257.321 1884.23 256.452 1883.27 255.366C1882.32 254.28 1881.61 253.019 1881.14 251.582C1880.67 250.146 1880.51 248.707 1880.64 247.267C1880.77 245.815 1881.15 244.467 1881.77 243.224C1882.4 241.965 1883.26 240.857 1884.35 239.902C1885.43 238.934 1886.69 238.217 1888.13 237.75L1893.98 235.849C1894.93 235.539 1895.89 235.364 1896.87 235.322C1897.84 235.279 1898.78 235.363 1899.7 235.572C1900.62 235.78 1901.5 236.104 1902.34 236.543C1903.17 236.969 1903.94 237.5 1904.64 238.135C1905.34 238.758 1905.95 239.475 1906.49 240.286C1907.03 241.097 1907.45 241.98 1907.76 242.933ZM1903.97 244.165C1903.67 243.248 1903.22 242.444 1902.61 241.752C1902 241.059 1901.31 240.513 1900.52 240.111C1899.73 239.698 1898.87 239.448 1897.95 239.363C1897.04 239.261 1896.13 239.353 1895.21 239.639L1889.36 241.54C1888.45 241.85 1887.65 242.315 1886.96 242.936C1886.28 243.54 1885.74 244.242 1885.34 245.042C1884.94 245.83 1884.7 246.682 1884.61 247.6C1884.54 248.514 1884.65 249.429 1884.95 250.345C1885.25 251.261 1885.69 252.068 1886.29 252.764C1886.9 253.456 1887.6 254.009 1888.39 254.423C1889.18 254.824 1890.03 255.076 1890.93 255.177C1891.85 255.262 1892.77 255.156 1893.69 254.858L1899.54 252.957C1900.45 252.659 1901.25 252.208 1901.93 251.604C1902.62 250.983 1903.16 250.279 1903.57 249.492C1903.96 248.692 1904.2 247.833 1904.29 246.916C1904.37 245.998 1904.27 245.081 1903.97 244.165ZM1938.96 245.406C1939.26 246.335 1939.36 247.26 1939.26 248.182C1939.18 249.099 1938.93 249.96 1938.52 250.764C1938.12 251.564 1937.57 252.27 1936.87 252.882C1936.18 253.491 1935.37 253.944 1934.46 254.241L1919.24 259.184L1918 255.376L1933.22 250.433C1933.6 250.309 1933.94 250.116 1934.24 249.854C1934.54 249.593 1934.78 249.29 1934.95 248.946C1935.13 248.601 1935.23 248.231 1935.27 247.836C1935.32 247.437 1935.28 247.04 1935.15 246.643L1929.28 228.57L1918.82 231.968C1917.91 232.278 1917.11 232.743 1916.42 233.364C1915.74 233.968 1915.2 234.67 1914.8 235.47C1914.4 236.258 1914.16 237.11 1914.07 238.028C1914 238.941 1914.11 239.856 1914.41 240.773C1914.71 241.689 1915.15 242.495 1915.75 243.192C1916.35 243.872 1917.05 244.418 1917.84 244.832C1918.63 245.233 1919.48 245.485 1920.39 245.586C1921.31 245.672 1922.23 245.571 1923.15 245.286L1931.71 242.504L1932.95 246.312L1924.38 249.094C1922.94 249.548 1921.5 249.708 1920.06 249.574C1918.62 249.427 1917.27 249.036 1916.03 248.401C1914.79 247.749 1913.69 246.88 1912.73 245.794C1911.78 244.708 1911.07 243.446 1910.6 242.01C1910.13 240.573 1909.97 239.135 1910.1 237.695C1910.24 236.255 1910.62 234.913 1911.24 233.67C1911.87 232.411 1912.73 231.304 1913.82 230.348C1914.9 229.381 1916.15 228.657 1917.59 228.178L1931.85 223.543L1938.96 245.406ZM1968.73 235.731C1969.04 236.66 1969.14 237.583 1969.06 238.501C1968.97 239.418 1968.73 240.279 1968.32 241.083C1967.92 241.883 1967.37 242.589 1966.66 243.201C1965.97 243.81 1965.17 244.263 1964.25 244.56L1949.04 249.504L1947.8 245.696L1963.01 240.753C1963.4 240.628 1963.74 240.435 1964.04 240.174C1964.33 239.912 1964.57 239.609 1964.75 239.265C1964.92 238.92 1965.03 238.55 1965.06 238.155C1965.1 237.76 1965.05 237.365 1964.93 236.968L1964.62 236.021L1954.16 239.419C1952.72 239.886 1951.28 240.052 1949.84 239.918C1948.4 239.771 1947.05 239.38 1945.81 238.744C1944.57 238.092 1943.47 237.224 1942.52 236.137C1941.56 235.039 1940.84 233.772 1940.38 232.335L1936.98 221.877L1940.79 220.64L1944.19 231.098C1944.48 232.014 1944.93 232.82 1945.53 233.517C1946.13 234.197 1946.83 234.743 1947.62 235.157C1948.41 235.558 1949.26 235.81 1950.17 235.911C1951.08 235.997 1952 235.897 1952.92 235.611L1963.38 232.213L1957.82 215.105L1961.63 213.868L1968.73 235.731ZM1971.05 207.726C1971.23 208.366 1971.33 208.998 1971.34 209.624C1971.36 210.246 1971.35 210.806 1971.29 211.304C1971.23 211.884 1971.14 212.45 1971 213L1968.54 213.76C1968.57 213.571 1968.6 213.363 1968.62 213.137C1968.64 212.939 1968.65 212.709 1968.66 212.445C1968.69 212.178 1968.68 211.877 1968.66 211.543C1968.31 211.603 1967.96 211.6 1967.61 211.535C1967.25 211.459 1966.93 211.333 1966.62 211.157C1966.31 210.97 1966.05 210.735 1965.82 210.453C1965.59 210.159 1965.41 209.833 1965.29 209.473C1965.17 209.09 1965.13 208.7 1965.16 208.305C1965.2 207.91 1965.3 207.54 1965.48 207.196C1965.65 206.851 1965.89 206.548 1966.19 206.287C1966.48 206.013 1966.83 205.812 1967.23 205.683C1967.61 205.559 1968 205.52 1968.4 205.569C1968.8 205.605 1969.17 205.717 1969.52 205.905C1969.86 206.08 1970.17 206.323 1970.43 206.634C1970.71 206.941 1970.92 207.305 1971.05 207.726ZM1978.28 205.378C1978.46 206.018 1978.55 206.651 1978.57 207.277C1978.59 207.899 1978.57 208.458 1978.52 208.956C1978.46 209.536 1978.36 210.102 1978.23 210.653L1975.78 211.406C1975.81 211.217 1975.84 211.009 1975.87 210.783C1975.88 210.585 1975.9 210.355 1975.91 210.091C1975.92 209.828 1975.92 209.527 1975.9 209.19C1975.54 209.253 1975.18 209.252 1974.83 209.188C1974.48 209.111 1974.15 208.985 1973.85 208.81C1973.54 208.622 1973.27 208.387 1973.04 208.106C1972.81 207.811 1972.64 207.485 1972.52 207.126C1972.4 206.742 1972.35 206.352 1972.39 205.957C1972.42 205.562 1972.53 205.193 1972.7 204.848C1972.88 204.503 1973.12 204.2 1973.42 203.939C1973.71 203.666 1974.06 203.464 1974.45 203.336C1974.84 203.211 1975.23 203.173 1975.63 203.221C1976.02 203.257 1976.39 203.369 1976.74 203.557C1977.09 203.732 1977.39 203.976 1977.66 204.286C1977.93 204.593 1978.14 204.957 1978.28 205.378Z" fill="#F9F9F9"/>
</svg>
